<svg aria-hidden="true" style="position: absolute; width: 0; height: 0; overflow: hidden;" version="1.1" xmlns="http://www.w3.org/2000/svg" xmlns:xlink="http://www.w3.org/1999/xlink">
<defs>
<symbol id="icon-chevron-down" viewBox="0 0 32 32">
<path stroke-linejoin="round" stroke-linecap="round" stroke-miterlimit="4" stroke-width="3.2" d="M8 12l8 8 8-8"></path>
</symbol>
<symbol id="icon-chevron-up" viewBox="0 0 32 32">
<path stroke-linejoin="round" stroke-linecap="round" stroke-miterlimit="4" stroke-width="3.2" d="M8 20l8-8 8 8"></path>
</symbol>
<symbol id="icon-close" viewBox="0 0 32 32">
<path stroke-linejoin="round" stroke-linecap="round" stroke-miterlimit="4" stroke-width="2.4" d="M24 8l-16 16"></path>
<path stroke-linejoin="round" stroke-linecap="round" stroke-miterlimit="4" stroke-width="2.4" d="M8 8l16 16"></path>
</symbol>
<symbol id="icon-heart" viewBox="0 0 32 32">
<path stroke-linejoin="round" stroke-linecap="round" stroke-miterlimit="4" stroke-width="2.6667" d="M27.787 6.147c-0.681-0.681-1.49-1.222-2.38-1.591s-1.844-0.559-2.807-0.559c-0.963 0-1.917 0.19-2.807 0.559s-1.698 0.909-2.38 1.591l-1.413 1.413-1.413-1.413c-1.376-1.376-3.241-2.148-5.187-2.148s-3.811 0.773-5.187 2.148c-1.376 1.376-2.148 3.241-2.148 5.187s0.773 3.811 2.148 5.187l11.787 11.787 11.787-11.787c0.681-0.681 1.222-1.49 1.591-2.38s0.559-1.844 0.559-2.807c0-0.963-0.19-1.917-0.559-2.807s-0.909-1.699-1.591-2.38z"></path>
</symbol>
<symbol id="icon-car-rental" viewBox="0 0 32 32">
<path d="M26.88 18.56l-2.347-4.693c-0.401-0.644-1.105-1.067-1.908-1.067-0.004 0-0.008 0-0.012 0h-13.226c-0.004-0-0.008-0-0.012-0-0.803 0-1.507 0.422-1.903 1.057l-0.005 0.009-2.347 4.693-2.645 2.458c-0.21 0.195-0.341 0.473-0.341 0.782 0 0 0 0.001 0 0.001v-0 9.133c0 0.589 0.478 1.067 1.067 1.067v0h4.267c0.427 0 1.067-0.427 1.067-0.853v-1.28h14.933v1.067c0 0.427 0.427 1.067 0.853 1.067h4.48c0.589 0 1.067-0.478 1.067-1.067v0-9.133c0-0 0-0.001 0-0.001 0-0.309-0.131-0.587-0.341-0.782l-0.001-0.001zM9.6 14.933h12.8l2.133 4.267h-17.067zM10.667 24.747c0 0.427-0.64 0.853-1.067 0.853h-4.48c-0.427 0-0.853-0.64-0.853-1.067v-2.347c0.213-0.64 0.64-1.067 1.28-0.853l4.267 0.853c0.427 0 0.853 0.64 0.853 1.067zM27.733 24.533c0 0.427-0.427 1.067-0.853 1.067h-4.48c-0.427 0-1.067-0.427-1.067-0.853v-1.493c0-0.427 0.427-1.067 0.853-1.067l4.267-0.853c0.64-0.213 1.067 0.213 1.28 0.853zM28.8 0h-5.333c-1.178 0-2.133 0.955-2.133 2.133v0h-17.067l-2.133 2.133v2.133l2.133 2.133 3.2-3.2 3.2 3.2 3.2-3.2 3.2 3.2h4.267c0 1.178 0.955 2.133 2.133 2.133v0h5.333c0.589 0 1.067-0.478 1.067-1.067v0-8.533c0-0.589-0.478-1.067-1.067-1.067v0zM27.733 7.467c0 0.589-0.478 1.067-1.067 1.067s-1.067-0.478-1.067-1.067v0-4.267c0-0.589 0.478-1.067 1.067-1.067s1.067 0.478 1.067 1.067v0z"></path>
</symbol>
</defs>
</svg>
