<?xml version="1.0" standalone="no"?>
<!DOCTYPE svg PUBLIC "-//W3C//DTD SVG 20010904//EN"
 "http://www.w3.org/TR/2001/REC-SVG-20010904/DTD/svg10.dtd">
<svg version="1.0" xmlns="http://www.w3.org/2000/svg"
 width="700.000000pt" height="700.000000pt" viewBox="0 0 700.000000 700.000000"
 preserveAspectRatio="xMidYMid meet">
<metadata>
Created by potrace 1.14, written by Peter Selinger 2001-2017
</metadata>
<g transform="translate(0.000000,700.000000) scale(0.100000,-0.100000)"
fill="#000000" stroke="none">
<path d="M5025 6985 c-193 -49 -332 -204 -352 -390 -3 -27 -7 -52 -10 -55 -2
-3 -843 -5 -1867 -6 l-1863 0 -234 -235 -234 -235 1 -232 1 -233 229 -229
c126 -127 232 -230 236 -230 5 0 158 150 341 333 183 182 340 338 348 344 13
11 66 -38 360 -332 189 -190 347 -345 352 -345 4 0 163 156 353 346 190 190
347 344 349 342 2 -1 160 -158 350 -348 l346 -345 452 -2 c248 0 460 -2 470
-2 13 -1 17 -10 17 -38 0 -47 20 -115 54 -181 54 -106 183 -204 306 -232 63
-15 1215 -21 1310 -7 79 12 134 55 172 137 21 45 21 49 21 1026 l1 980 -22 45
c-29 60 -77 104 -135 123 -42 14 -126 16 -675 15 -476 0 -639 -4 -677 -14z
m915 -480 c50 -25 89 -68 111 -120 20 -48 21 -1023 1 -1090 -19 -68 -80 -128
-150 -148 -120 -36 -237 20 -286 137 -24 57 -24 1022 0 1093 44 132 197 192
324 128z"/>
<path d="M1945 4189 c-22 -5 -49 -13 -60 -18 -84 -36 -127 -64 -177 -114 -54
-54 -74 -90 -324 -590 -147 -292 -270 -534 -274 -537 -7 -4 -56 -50 -330 -305
-41 -39 -104 -98 -140 -130 -106 -99 -132 -128 -153 -175 -20 -44 -21 -61 -21
-1091 l0 -1045 23 -47 c27 -56 87 -109 140 -125 27 -9 187 -12 533 -12 542 0
537 0 621 60 74 53 82 74 83 242 0 82 4 151 8 155 13 13 3256 12 3257 -1 0 -6
2 -69 3 -141 2 -114 5 -136 25 -177 27 -54 85 -116 119 -129 14 -5 256 -9 546
-9 l522 1 50 23 c54 25 96 68 121 125 14 32 15 152 16 1081 0 1028 0 1046 -20
1090 -22 50 -47 77 -213 230 -155 144 -152 141 -285 265 -64 61 -121 112 -125
115 -4 3 -127 244 -273 536 -281 561 -293 581 -397 651 -25 16 -72 41 -105 54
l-60 24 -1535 2 c-890 0 -1552 -3 -1575 -8z m3184 -915 c127 -254 231 -464
231 -468 0 -3 -837 -6 -1860 -6 -1023 0 -1860 3 -1860 6 0 8 448 905 459 918
7 8 380 11 1404 11 l1396 0 230 -461z m-3629 -998 c179 -36 340 -67 358 -71
18 -3 64 -12 102 -20 38 -8 82 -17 97 -20 16 -3 39 -7 53 -10 14 -4 34 -7 45
-9 39 -6 86 -37 116 -79 59 -80 61 -95 62 -307 0 -220 -3 -233 -72 -292 -80
-68 -77 -68 -652 -68 l-516 0 -42 28 c-46 31 -85 83 -105 140 -10 27 -13 111
-12 317 l1 280 31 55 c48 85 125 135 189 124 11 -2 166 -33 345 -68z m4452 38
c40 -26 78 -76 101 -134 22 -53 17 -580 -6 -630 -25 -55 -64 -103 -105 -128
l-37 -22 -525 1 -525 0 -50 25 c-27 13 -62 37 -78 52 -57 54 -61 69 -60 282 0
184 2 198 24 245 13 28 42 68 64 91 39 39 45 41 175 67 146 29 169 33 215 42
17 3 140 28 275 55 135 27 259 52 275 55 17 3 55 11 85 18 72 18 126 12 172
-19z"/>
</g>
</svg>
